<?xml version="1.0" standalone="no"?>
<!DOCTYPE svg PUBLIC "-//W3C//DTD SVG 20010904//EN"
 "http://www.w3.org/TR/2001/REC-SVG-20010904/DTD/svg10.dtd">
<svg version="1.0" xmlns="http://www.w3.org/2000/svg"
 width="879.000000pt" height="240.000000pt" viewBox="0 0 879.000000 240.000000"
 preserveAspectRatio="xMidYMid meet">
<metadata>
Created by potrace 1.16, written by Peter Selinger 2001-2019
</metadata>
<g transform="translate(0.000000,240.000000) scale(0.100000,-0.100000)"
fill="#000000" stroke="none">
<path d="M0 1200 l0 -1200 4395 0 4395 0 0 1200 0 1200 -4395 0 -4395 0 0
-1200z m648 983 c-3 -34 -6 -38 -42 -45 -48 -10 -101 -49 -121 -89 -28 -53
-32 -116 -24 -346 12 -295 -3 -364 -86 -409 -19 -10 -35 -23 -35 -29 0 -6 16
-19 35 -29 83 -45 98 -114 86 -409 -11 -289 -2 -341 69 -401 30 -24 46 -31 95
-38 15 -2 21 -12 23 -42 l3 -39 -57 7 c-108 12 -192 67 -237 151 -26 50 -31
159 -20 415 5 102 6 203 2 225 -9 50 -48 85 -95 85 l-34 0 0 75 0 75 30 0 c16
0 40 5 53 11 43 20 50 50 46 224 -7 302 -5 428 10 468 16 46 60 98 105 126 36
23 126 49 169 50 27 1 28 -1 25 -36z m981 -413 c-3 -312 -1 -450 7 -450 5 0
48 102 94 228 121 329 99 292 175 292 l65 0 -19 -47 c-11 -27 -53 -131 -95
-232 -42 -102 -76 -191 -76 -199 0 -8 52 -159 115 -334 63 -176 115 -324 115
-329 0 -5 -29 -9 -64 -9 l-63 0 -33 93 c-18 50 -59 170 -93 266 l-60 174 -26
-49 c-25 -47 -26 -57 -31 -264 l-5 -215 -60 0 -60 0 -3 763 -2 762 61 0 61 0
-3 -450z m2141 439 c60 -13 103 -46 132 -103 17 -33 22 -69 29 -191 9 -164 3
-380 -13 -463 -21 -112 -104 -162 -265 -162 l-83 0 0 -300 0 -300 -60 0 -60 0
0 765 0 765 135 0 c73 0 157 -5 185 -11z m1680 -64 l0 -75 -100 0 -100 0 0 68
c0 38 3 72 7 75 3 4 48 7 100 7 l93 0 0 -75z m2796 34 c67 -32 106 -74 130
-141 13 -36 15 -92 12 -346 l-3 -304 28 -24 c18 -15 41 -24 63 -24 l34 0 0
-74 0 -73 -41 -6 c-75 -10 -84 -29 -84 -170 0 -67 2 -205 5 -307 5 -177 4
-187 -18 -235 -27 -59 -45 -80 -95 -111 -38 -25 -133 -54 -174 -54 -20 0 -23
5 -23 40 0 36 2 40 26 40 43 0 104 41 132 90 l27 45 0 300 0 300 25 45 c16 27
40 53 63 65 45 24 47 39 6 55 -16 7 -41 27 -53 44 -46 61 -49 91 -42 367 5
178 4 269 -4 298 -19 72 -95 141 -155 141 -23 0 -25 4 -25 41 l0 41 53 -7 c28
-3 80 -20 113 -36z m-1082 -179 l-7 -160 87 0 86 0 0 -50 0 -49 -82 -3 -83 -3
-3 -438 c-3 -507 -3 -501 72 -512 25 -4 62 -5 81 -3 l35 4 0 -48 c0 -43 -3
-48 -26 -54 -47 -12 -162 3 -204 27 -83 47 -90 97 -90 617 l0 412 -35 0 -35 0
0 50 0 50 40 0 40 0 0 160 0 160 66 0 66 0 -8 -160z m-5999 -164 c62 -19 100
-57 122 -120 16 -46 18 -93 18 -446 0 -448 -4 -481 -69 -538 -89 -78 -323 -64
-380 22 -40 63 -46 124 -46 511 0 387 6 448 46 511 17 25 58 51 104 65 42 13
154 10 205 -5z m1327 4 c53 -15 94 -53 115 -108 17 -43 18 -87 18 -542 l0
-495 -62 -3 -63 -3 0 56 c0 30 -4 55 -9 55 -5 0 -21 -20 -35 -44 -36 -62 -95
-85 -174 -68 -106 22 -145 96 -145 272 0 182 54 263 247 369 l116 63 0 135 c0
193 -22 232 -129 220 -76 -8 -85 -27 -89 -172 l-4 -125 -58 0 -59 0 -7 36
c-12 67 3 201 30 259 24 53 52 76 116 96 37 11 150 10 192 -1z m2455 -5 c63
-19 97 -56 120 -133 15 -50 17 -105 17 -437 0 -339 -1 -386 -18 -440 -31 -102
-99 -145 -231 -145 -132 0 -200 43 -231 145 -16 53 -18 102 -18 440 0 338 2
387 18 440 21 69 66 118 123 133 58 15 163 14 220 -3z m1031 0 c61 -18 105
-66 121 -131 6 -24 11 -135 11 -253 l0 -211 -180 0 -180 0 0 -172 c1 -241 9
-269 88 -284 50 -10 102 7 126 39 18 24 22 46 25 148 l3 119 59 0 59 0 0 -113
c0 -218 -46 -283 -209 -294 -144 -10 -232 36 -263 139 -19 61 -18 825 0 886
18 60 65 109 121 126 61 19 155 20 219 1z m708 -13 c64 -33 86 -77 93 -188 3
-52 5 -114 3 -139 l-4 -45 -59 0 -59 0 0 113 c0 134 -15 171 -75 183 -50 9
-105 -2 -129 -26 -28 -28 -35 -110 -35 -455 0 -346 6 -427 35 -456 27 -26 91
-35 139 -19 53 17 65 53 65 190 l0 110 59 0 58 0 6 -57 c3 -32 2 -94 -2 -139
-14 -147 -68 -202 -210 -211 -149 -10 -236 39 -260 146 -15 69 -23 481 -13
691 8 158 12 191 30 227 40 77 102 104 232 99 63 -2 96 -8 126 -24z m1157 14
c73 -27 103 -71 119 -175 5 -36 6 -99 3 -138 l-7 -73 -54 0 -54 0 -1 103 c0
157 -23 197 -112 197 -53 0 -94 -23 -101 -57 -22 -116 -12 -288 19 -323 10
-11 58 -33 107 -49 105 -35 150 -66 180 -124 19 -36 23 -62 26 -173 8 -259
-35 -330 -207 -341 -193 -13 -254 54 -255 281 l-1 121 55 0 55 0 5 -127 c4
-113 7 -130 26 -149 29 -28 98 -36 146 -16 51 21 61 61 57 221 l-4 128 -31 28
c-18 15 -68 40 -114 55 -98 33 -151 75 -177 143 -14 38 -18 76 -18 192 0 130
2 150 22 190 22 45 59 74 111 90 43 13 164 10 205 -4z m-4933 -7 c0 -6 18
-179 40 -383 22 -204 46 -433 54 -509 7 -76 16 -140 19 -144 4 -3 12 -3 19 0
13 5 34 175 101 832 l22 210 63 3 c62 3 62 3 62 -25 0 -43 -169 -1304 -179
-1341 -18 -61 -59 -119 -98 -138 -28 -14 -66 -20 -145 -22 l-108 -4 0 50 0 50
91 4 c83 3 93 5 113 29 16 19 26 50 35 105 6 44 14 94 17 112 5 32 5 32 -36
32 -24 0 -42 5 -45 13 -4 11 -155 1113 -155 1130 0 4 29 7 65 7 42 0 65 -4 65
-11z m1300 -44 c0 -66 16 -72 45 -17 25 46 74 72 138 72 l47 0 0 -49 0 -48
-66 -7 c-87 -9 -117 -26 -143 -79 -20 -42 -21 -56 -21 -505 l0 -462 -60 0 -60
0 0 575 0 575 60 0 60 0 0 -55z m1208 -642 l-3 -698 -25 -45 c-41 -74 -143
-111 -266 -95 l-54 6 0 50 0 49 75 0 c84 0 118 12 134 47 8 17 11 227 11 703
l0 680 65 0 66 0 -3 -697z m3052 -993 l0 -50 -4100 0 -4100 0 0 50 0 50 4100
0 4100 0 0 -50z"/>
<path d="M3572 1753 l3 -348 62 -3 c72 -3 124 15 149 52 14 22 18 60 22 209 2
100 1 227 -3 282 -6 90 -10 101 -35 127 -27 26 -33 28 -114 28 l-86 0 2 -347z"/>
<path d="M990 1737 c-54 -27 -55 -38 -55 -472 1 -290 4 -408 13 -428 32 -75
187 -75 218 -1 18 44 21 802 3 854 -19 53 -117 79 -179 47z"/>
<path d="M2419 1240 c-90 -53 -134 -104 -148 -169 -14 -65 -14 -164 -1 -213
28 -100 160 -105 210 -8 18 35 20 59 20 235 0 107 -3 195 -7 195 -5 0 -38 -18
-74 -40z"/>
<path d="M4773 1740 c-12 -5 -30 -21 -40 -37 -17 -25 -18 -59 -18 -439 0 -404
0 -413 21 -441 42 -56 157 -56 198 0 20 28 21 41 24 405 2 207 0 396 -3 420
-10 66 -40 94 -106 98 -30 2 -64 0 -76 -6z"/>
<path d="M5815 1741 c-11 -5 -29 -19 -40 -31 -18 -20 -20 -39 -23 -196 l-4
-174 121 0 121 0 0 148 c0 158 -9 209 -40 237 -22 20 -104 30 -135 16z"/>
</g>
</svg>
