<?xml version="1.0" standalone="no"?>
<!DOCTYPE svg PUBLIC "-//W3C//DTD SVG 20010904//EN"
 "http://www.w3.org/TR/2001/REC-SVG-20010904/DTD/svg10.dtd">
<svg version="1.0" xmlns="http://www.w3.org/2000/svg"
 width="781.000000pt" height="211.000000pt" viewBox="0 0 781.000000 211.000000"
 preserveAspectRatio="xMidYMid meet">
<metadata>
Created by potrace 1.16, written by Peter Selinger 2001-2019
</metadata>
<g transform="translate(0.000000,211.000000) scale(0.100000,-0.100000)"
fill="#000000" stroke="none">
<path d="M464 1894 c-57 -20 -118 -75 -140 -126 -16 -38 -18 -65 -14 -248 8
-348 8 -339 -23 -366 -16 -14 -41 -24 -58 -24 l-29 0 0 -70 0 -70 31 0 c84 0
92 -32 78 -314 -11 -247 -5 -300 41 -364 34 -48 115 -90 188 -99 l52 -6 0 32
c0 32 -3 35 -52 45 -37 8 -82 49 -103 92 -15 31 -17 62 -14 218 5 264 3 327
-15 367 -15 35 -68 89 -87 89 -21 0 -6 26 24 40 21 10 40 31 56 64 27 54 28
66 23 376 -2 113 1 186 8 205 18 47 70 95 117 107 38 9 43 14 43 39 0 28 -2
29 -42 28 -24 0 -62 -7 -84 -15z"/>
<path d="M1360 1230 l0 -680 55 0 55 0 0 179 c0 171 1 181 26 237 15 33 28 55
30 49 3 -5 40 -111 83 -235 l79 -225 61 -3 61 -3 -20 53 c-11 29 -60 164 -108
300 l-89 246 84 203 c45 112 83 207 83 212 0 4 -25 7 -57 5 l-56 -3 -69 -185
c-38 -102 -75 -204 -84 -227 -9 -24 -20 -43 -24 -43 -5 0 -6 176 -3 400 l6
400 -56 0 -57 0 0 -680z"/>
<path d="M3090 1231 l0 -681 55 0 55 0 0 264 0 263 88 7 c118 9 168 34 202
101 25 50 25 52 25 315 0 249 -1 268 -21 311 -14 30 -35 54 -60 70 -36 22 -51
24 -191 27 l-153 4 0 -681z m280 551 c37 -38 43 -89 38 -334 -4 -200 -9 -227
-49 -248 -11 -6 -51 -14 -90 -17 l-69 -6 0 317 0 316 71 0 c64 0 73 -3 99 -28z"/>
<path d="M4700 1845 l0 -65 90 0 90 0 0 65 0 65 -90 0 -90 0 0 -65z"/>
<path d="M7220 1881 c0 -25 5 -30 43 -39 47 -12 99 -59 118 -107 8 -20 10 -89
8 -215 -6 -285 -4 -315 23 -368 15 -31 34 -52 55 -62 41 -19 41 -30 1 -55 -78
-50 -89 -101 -79 -370 4 -110 4 -220 -1 -245 -13 -71 -63 -125 -129 -139 -30
-6 -34 -11 -37 -40 l-3 -34 52 6 c74 9 154 51 189 99 46 63 52 117 41 365 -13
283 -5 313 78 313 l31 0 0 70 0 70 -29 0 c-17 0 -42 10 -57 24 -32 27 -31 16
-24 361 3 187 2 215 -14 253 -34 78 -136 142 -228 142 -35 0 -38 -2 -38 -29z"/>
<path d="M6290 1715 l0 -145 -35 0 c-35 0 -35 0 -35 -45 0 -45 0 -45 35 -45
l35 0 0 -392 c0 -418 3 -454 47 -500 31 -32 104 -51 178 -46 l50 3 3 43 3 42
-59 0 c-44 0 -66 5 -83 19 l-24 19 -3 406 -3 405 78 3 78 3 3 42 3 42 -78 3
-78 3 3 143 4 142 -61 0 -61 0 0 -145z"/>
<path d="M834 1566 c-17 -8 -40 -26 -52 -40 -45 -58 -47 -81 -47 -471 0 -367
0 -370 23 -417 31 -64 75 -89 162 -96 133 -9 212 31 241 125 15 50 24 579 11
700 -17 168 -65 213 -222 213 -48 -1 -98 -7 -116 -14z m197 -95 c21 -17 24
-29 31 -172 10 -181 1 -592 -14 -625 -14 -31 -59 -48 -114 -41 -89 10 -93 27
-93 427 0 328 6 385 39 412 31 25 119 25 151 -1z"/>
<path d="M2035 1566 c-75 -33 -108 -118 -103 -262 l3 -79 53 -3 52 -3 0 83 c1
99 13 158 36 175 27 20 108 16 135 -6 23 -18 24 -26 27 -159 l3 -140 -93 -48
c-176 -91 -230 -170 -231 -334 0 -97 14 -155 45 -195 60 -76 192 -71 239 10
28 47 39 44 39 -10 l0 -45 55 0 55 0 0 448 c0 445 0 448 -22 492 -37 70 -64
85 -171 88 -62 1 -102 -2 -122 -12z m205 -673 c0 -159 -2 -181 -19 -207 -24
-36 -57 -55 -94 -56 -71 -1 -97 44 -97 167 0 96 18 150 61 190 24 22 127 82
142 83 4 0 7 -80 7 -177z"/>
<path d="M4200 1558 c-54 -28 -76 -63 -89 -148 -13 -80 -14 -601 -1 -688 19
-137 68 -177 215 -177 148 0 194 39 216 179 6 39 9 199 7 389 -3 320 -3 322
-28 371 -39 77 -64 90 -178 94 -85 3 -102 0 -142 -20z m201 -87 c20 -16 25
-32 30 -102 9 -106 9 -497 1 -611 -8 -102 -19 -118 -86 -125 -56 -7 -100 10
-115 43 -15 35 -26 411 -16 608 7 148 9 161 31 183 31 30 119 33 155 4z"/>
<path d="M5140 1569 c-43 -18 -80 -61 -95 -113 -22 -73 -22 -720 0 -793 27
-91 100 -129 231 -121 84 6 129 28 159 78 16 29 21 57 24 158 l3 122 -56 0
-56 0 0 -102 c0 -63 -5 -113 -13 -128 -25 -49 -142 -53 -173 -5 -12 19 -17 64
-21 200 l-6 175 160 0 161 0 7 86 c10 121 -3 309 -25 360 -10 22 -33 52 -51
65 -29 21 -47 24 -129 26 -52 2 -106 -2 -120 -8z m181 -98 c21 -17 25 -31 31
-113 3 -51 7 -123 7 -160 l1 -68 -112 0 -111 0 6 156 c6 144 8 159 28 180 29
31 114 34 150 5z"/>
<path d="M5735 1566 c-46 -20 -82 -69 -94 -126 -15 -70 -15 -692 0 -762 22
-100 98 -144 235 -136 89 6 132 29 160 85 24 48 39 171 29 233 l-7 40 -51 0
-52 0 -1 -105 c-2 -122 -14 -150 -69 -161 -54 -10 -103 3 -123 34 -15 23 -17
62 -20 332 -6 478 -2 493 110 488 88 -4 100 -23 102 -159 l3 -104 50 -3 51 -3
7 63 c8 80 -8 194 -33 227 -41 56 -67 66 -170 69 -66 1 -107 -2 -127 -12z"/>
<path d="M6792 1561 c-66 -31 -85 -82 -84 -236 0 -200 26 -243 179 -300 124
-47 128 -53 128 -217 l0 -130 -29 -25 c-26 -22 -37 -25 -84 -21 -83 7 -92 23
-92 159 l0 109 -50 0 -50 0 0 -112 c1 -190 47 -248 199 -248 115 0 179 38 201
121 20 72 17 276 -5 328 -21 51 -74 93 -148 116 -92 29 -108 37 -121 64 -33
64 -26 281 9 307 25 18 116 18 141 0 16 -12 20 -30 24 -133 l5 -118 50 0 50 0
0 115 c0 128 -15 175 -68 214 -42 31 -194 35 -255 7z"/>
<path d="M2494 1533 c4 -21 33 -238 66 -483 33 -245 63 -457 66 -473 5 -23 11
-27 40 -27 39 0 40 -4 24 -110 -13 -80 -27 -118 -51 -130 -10 -6 -52 -10 -93
-10 l-76 0 0 -45 0 -45 90 0 c130 0 178 26 215 115 10 23 48 275 96 634 43
327 79 599 79 603 0 4 -26 8 -58 8 l-58 0 -22 -217 c-66 -646 -75 -713 -92
-713 -14 0 -18 13 -23 63 -4 34 -26 243 -49 465 l-42 402 -59 0 -59 0 6 -37z"/>
<path d="M3660 1060 l0 -510 55 0 55 0 0 415 c0 443 0 445 49 489 15 13 42 21
89 25 l67 6 3 43 3 42 -61 0 c-55 0 -65 -3 -91 -29 -16 -16 -29 -37 -29 -45 0
-9 -7 -16 -15 -16 -11 0 -15 12 -15 45 l0 45 -55 0 -55 0 0 -510z"/>
<path d="M4730 961 c0 -721 11 -661 -121 -661 l-79 0 0 -44 0 -45 56 -7 c67
-8 155 8 193 36 16 11 37 37 47 57 18 36 19 75 22 656 l3 617 -61 0 -60 0 0
-609z"/>
</g>
</svg>
