<?xml version="1.0" standalone="no"?>
<!DOCTYPE svg PUBLIC "-//W3C//DTD SVG 20010904//EN"
 "http://www.w3.org/TR/2001/REC-SVG-20010904/DTD/svg10.dtd">
<svg version="1.0" xmlns="http://www.w3.org/2000/svg"
 width="863.000000pt" height="241.000000pt" viewBox="0 0 863.000000 241.000000"
 preserveAspectRatio="xMidYMid meet">
<metadata>
Created by potrace 1.16, written by Peter Selinger 2001-2019
</metadata>
<g transform="translate(0.000000,241.000000) scale(0.100000,-0.100000)"
fill="#000000" stroke="none">
<path d="M481 2224 c-95 -25 -165 -84 -192 -161 -15 -40 -17 -166 -10 -468 4
-174 -3 -204 -46 -224 -13 -6 -37 -11 -53 -11 l-30 0 0 -75 0 -75 34 0 c47 0
86 -35 95 -85 4 -22 3 -123 -2 -225 -11 -256 -6 -365 20 -415 45 -84 129 -139
237 -151 l57 -7 -3 39 c-2 30 -8 40 -23 42 -49 7 -65 14 -95 38 -71 60 -80
112 -69 401 12 295 -3 364 -86 409 -19 10 -35 23 -35 29 0 6 16 19 35 29 83
45 98 114 86 409 -8 230 -4 293 24 346 20 40 73 79 121 89 36 7 39 11 42 45 3
35 2 37 -25 36 -15 0 -52 -7 -82 -15z"/>
<path d="M1452 1478 l3 -763 60 0 60 0 5 215 c5 207 6 217 31 264 l26 49 60
-174 c34 -96 75 -216 93 -266 l33 -93 63 0 c35 0 64 4 64 9 0 5 -52 153 -115
329 -63 175 -115 326 -115 334 0 8 34 97 76 199 42 101 84 205 95 232 l19 47
-65 0 c-76 0 -54 37 -175 -292 -46 -126 -89 -228 -94 -228 -8 0 -10 138 -7
450 l3 450 -61 0 -61 0 2 -762z"/>
<path d="M3390 1475 l0 -765 60 0 60 0 0 300 0 300 83 0 c161 0 244 50 265
162 16 83 22 299 13 463 -7 122 -12 158 -29 191 -47 93 -107 114 -317 114
l-135 0 0 -765z m320 617 c25 -26 29 -37 35 -127 4 -55 5 -182 3 -282 -4 -149
-8 -187 -22 -209 -25 -37 -77 -55 -149 -52 l-62 3 -3 348 -2 347 86 0 c81 0
87 -2 114 -28z"/>
<path d="M5197 2233 c-4 -3 -7 -37 -7 -75 l0 -68 100 0 100 0 0 75 0 75 -93 0
c-52 0 -97 -3 -100 -7z"/>
<path d="M8020 2201 c0 -37 2 -41 25 -41 60 0 136 -69 155 -141 8 -29 9 -120
4 -298 -7 -276 -4 -306 42 -367 12 -17 37 -37 53 -44 41 -16 39 -31 -6 -55
-23 -12 -47 -38 -63 -65 l-25 -45 0 -300 0 -300 -27 -45 c-28 -49 -89 -90
-132 -90 -24 0 -26 -4 -26 -40 0 -35 3 -40 23 -40 41 0 136 29 174 54 50 31
68 52 95 111 22 48 23 58 18 235 -3 102 -5 240 -5 307 0 141 9 160 84 170 l41
6 0 73 0 74 -34 0 c-22 0 -45 9 -63 24 l-28 24 3 304 c4 330 1 351 -54 423
-32 43 -130 91 -201 100 l-53 7 0 -41z"/>
<path d="M6980 2020 l0 -160 -40 0 -40 0 0 -50 0 -50 35 0 35 0 0 -412 c0
-520 7 -570 90 -617 42 -24 157 -39 204 -27 23 6 26 11 26 54 l0 48 -35 -4
c-19 -2 -56 -1 -81 3 -75 11 -75 5 -72 512 l3 438 83 3 82 3 0 49 0 50 -86 0
-87 0 7 160 8 160 -66 0 -66 0 0 -160z"/>
<path d="M900 1861 c-46 -14 -87 -40 -104 -65 -40 -63 -46 -124 -46 -511 0
-387 6 -448 46 -511 26 -39 88 -65 169 -71 146 -11 231 32 263 136 15 49 17
103 17 451 0 353 -2 400 -18 446 -22 63 -60 101 -122 120 -51 15 -163 18 -205
5z m164 -105 c23 -9 37 -24 45 -46 18 -52 15 -810 -3 -854 -31 -74 -186 -74
-218 1 -9 20 -12 138 -13 428 0 434 1 445 55 472 33 17 93 16 134 -1z"/>
<path d="M2240 1861 c-64 -20 -92 -43 -116 -96 -27 -58 -42 -192 -30 -259 l7
-36 59 0 58 0 4 125 c4 145 13 164 89 172 107 12 129 -27 129 -220 l0 -135
-116 -63 c-193 -106 -247 -187 -247 -369 0 -176 39 -250 145 -272 79 -17 138
6 174 68 14 24 30 44 35 44 5 0 9 -25 9 -55 l0 -56 63 3 62 3 0 495 c0 455 -1
499 -18 542 -21 55 -62 93 -115 108 -42 11 -155 12 -192 1z m200 -756 c0 -176
-2 -200 -20 -235 -50 -97 -182 -92 -210 8 -13 49 -13 148 1 213 14 65 58 116
148 169 36 22 69 40 74 40 4 0 7 -88 7 -195z"/>
<path d="M4667 1858 c-57 -15 -102 -64 -123 -133 -16 -53 -18 -102 -18 -440 0
-431 5 -470 69 -531 78 -73 282 -73 360 0 64 61 69 100 69 531 0 416 -4 458
-60 524 -45 53 -190 77 -297 49z m199 -121 c13 -15 26 -46 29 -69 3 -24 5
-213 3 -420 -3 -364 -4 -377 -24 -405 -41 -56 -156 -56 -198 0 -21 28 -21 37
-21 441 0 380 1 414 18 439 24 37 51 47 116 43 44 -2 59 -8 77 -29z"/>
<path d="M5699 1854 c-56 -17 -103 -66 -121 -126 -18 -61 -19 -825 0 -886 31
-103 119 -149 263 -139 163 11 209 76 209 294 l0 113 -59 0 -59 0 -3 -119 c-3
-102 -7 -124 -25 -148 -24 -32 -76 -49 -126 -39 -79 15 -87 43 -88 284 l0 172
180 0 180 0 0 211 c0 232 -7 279 -51 333 -51 61 -190 84 -300 50z m191 -109
c31 -28 40 -79 40 -237 l0 -148 -121 0 -121 0 4 174 c3 157 5 176 23 196 11
12 29 26 40 31 31 14 113 4 135 -16z"/>
<path d="M6380 1859 c-52 -16 -88 -46 -112 -92 -18 -36 -22 -69 -30 -227 -10
-210 -2 -622 13 -691 24 -107 111 -156 260 -146 142 9 196 64 210 211 4 45 5
107 2 139 l-6 57 -58 0 -59 0 0 -110 c0 -137 -12 -173 -65 -190 -48 -16 -112
-7 -139 19 -29 29 -35 110 -35 456 0 345 7 427 35 455 24 24 79 35 129 26 60
-12 75 -49 75 -183 l0 -113 59 0 59 0 4 45 c2 25 0 87 -3 139 -7 111 -29 155
-93 188 -47 25 -188 34 -246 17z"/>
<path d="M7578 1860 c-52 -16 -89 -45 -111 -90 -20 -40 -22 -60 -22 -190 0
-116 4 -154 18 -192 26 -68 79 -110 177 -143 46 -15 96 -40 114 -55 l31 -28 4
-128 c4 -160 -6 -200 -57 -221 -48 -20 -117 -12 -146 16 -19 19 -22 36 -26
149 l-5 127 -55 0 -55 0 1 -121 c1 -227 62 -294 255 -281 172 11 215 82 207
341 -3 111 -7 137 -26 173 -30 58 -75 89 -180 124 -49 16 -97 38 -107 49 -31
35 -41 207 -19 323 7 34 48 57 101 57 89 0 112 -40 112 -197 l1 -103 54 0 54
0 7 73 c3 39 2 102 -3 138 -16 104 -46 148 -119 175 -41 14 -162 17 -205 4z"/>
<path d="M2720 1853 c0 -17 151 -1119 155 -1130 3 -8 21 -13 45 -13 41 0 41 0
36 -32 -3 -18 -11 -68 -17 -112 -9 -55 -19 -86 -35 -105 -20 -24 -30 -26 -113
-29 l-91 -4 0 -50 0 -50 108 4 c79 2 117 8 145 22 39 19 80 77 98 138 10 37
179 1298 179 1341 0 28 0 28 -62 25 l-63 -3 -22 -210 c-67 -657 -88 -827 -101
-832 -7 -3 -15 -3 -19 0 -3 4 -12 68 -19 144 -8 76 -32 305 -54 509 -22 204
-40 377 -40 383 0 7 -23 11 -65 11 -36 0 -65 -3 -65 -7z"/>
<path d="M4030 1285 l0 -575 60 0 60 0 0 462 c0 449 1 463 21 505 26 53 56 70
143 79 l66 7 0 48 0 49 -47 0 c-64 0 -113 -26 -138 -72 -29 -55 -45 -49 -45
17 l0 55 -60 0 -60 0 0 -575z"/>
<path d="M5230 1180 c0 -476 -3 -686 -11 -703 -16 -35 -50 -47 -134 -47 l-75
0 0 -49 0 -50 54 -6 c123 -16 225 21 266 95 l25 45 3 698 3 697 -66 0 -65 0 0
-680z"/>
<path d="M210 170 l0 -50 4100 0 4100 0 0 50 0 50 -4100 0 -4100 0 0 -50z"/>
</g>
</svg>
