<svg xmlns="http://www.w3.org/2000/svg" xmlns:xlink="http://www.w3.org/1999/xlink" zoomAndPan="magnify" preserveAspectRatio="xMidYMid meet" version="1.0" viewBox="-25.2 -14.4 302.4 172.8"><defs><g/></defs><rect x="-25.2" width="302.4" fill="rgb(100%, 100%, 100%)" y="-14.4" height="172.799997" fill-opacity="1"/><rect x="-25.2" width="302.4" fill="rgb(100%, 100%, 100%)" y="-14.4" height="172.799997" fill-opacity="1"/><rect x="-25.2" width="302.4" fill="rgb(100%, 100%, 100%)" y="-14.4" height="172.799997" fill-opacity="1"/><rect x="-25.2" width="302.4" fill="rgb(100%, 100%, 100%)" y="-14.4" height="172.799997" fill-opacity="1"/><g fill="rgb(0%, 0%, 0%)" fill-opacity="1"><g transform="translate(43.050133, 81.686949)"><g><path d="M 9.65625 7.546875 C 7.820312 7.546875 6.316406 7.054688 5.140625 6.078125 C 3.960938 5.109375 3.375 3.632812 3.375 1.65625 C 3.375 1.25 3.394531 0.613281 3.4375 -0.25 C 3.476562 -1.113281 3.515625 -2.03125 3.546875 -3 C 3.585938 -3.976562 3.625 -4.851562 3.65625 -5.625 C 3.695312 -6.40625 3.71875 -6.910156 3.71875 -7.140625 C 3.71875 -8.140625 3.546875 -8.820312 3.203125 -9.1875 C 2.867188 -9.550781 2.414062 -9.742188 1.84375 -9.765625 L 1.125 -9.765625 L 1.125 -12.734375 L 1.84375 -12.734375 C 2.414062 -12.753906 2.867188 -12.941406 3.203125 -13.296875 C 3.546875 -13.648438 3.71875 -14.335938 3.71875 -15.359375 C 3.71875 -15.585938 3.695312 -16.085938 3.65625 -16.859375 C 3.625 -17.640625 3.585938 -18.515625 3.546875 -19.484375 C 3.515625 -20.460938 3.484375 -21.382812 3.453125 -22.25 C 3.429688 -23.113281 3.421875 -23.75 3.421875 -24.15625 C 3.421875 -26.15625 4 -27.632812 5.15625 -28.59375 C 6.320312 -29.5625 7.820312 -30.046875 9.65625 -30.046875 L 9.65625 -28.578125 C 8.53125 -28.578125 7.613281 -28.171875 6.90625 -27.359375 C 6.207031 -26.546875 5.859375 -25.476562 5.859375 -24.15625 C 5.859375 -23.78125 5.867188 -23.203125 5.890625 -22.421875 C 5.921875 -21.648438 5.953125 -20.816406 5.984375 -19.921875 C 6.023438 -19.035156 6.054688 -18.226562 6.078125 -17.5 C 6.109375 -16.78125 6.125 -16.28125 6.125 -16 C 6.125 -14.800781 5.910156 -13.804688 5.484375 -13.015625 C 5.054688 -12.222656 4.429688 -11.738281 3.609375 -11.5625 L 3.609375 -10.96875 C 4.429688 -10.789062 5.054688 -10.300781 5.484375 -9.5 C 5.910156 -8.695312 6.125 -7.707031 6.125 -6.53125 C 6.125 -6.257812 6.109375 -5.753906 6.078125 -5.015625 C 6.054688 -4.273438 6.023438 -3.457031 5.984375 -2.5625 C 5.953125 -1.675781 5.921875 -0.84375 5.890625 -0.0625 C 5.867188 0.707031 5.859375 1.28125 5.859375 1.65625 C 5.859375 2.976562 6.207031 4.046875 6.90625 4.859375 C 7.613281 5.671875 8.53125 6.078125 9.65625 6.078125 Z M 9.65625 7.546875 "/></g></g></g><g fill="rgb(0%, 0%, 0%)" fill-opacity="1"><g transform="translate(53.82946, 81.686949)"><g><path d="M 6.984375 0.265625 C 5.234375 0.265625 4 -0.109375 3.28125 -0.859375 C 2.570312 -1.609375 2.179688 -2.863281 2.109375 -4.625 C 2.054688 -5.976562 2.019531 -7.414062 2 -8.9375 C 1.988281 -10.46875 1.988281 -12 2 -13.53125 C 2.019531 -15.070312 2.054688 -16.535156 2.109375 -17.921875 C 2.179688 -19.671875 2.570312 -20.921875 3.28125 -21.671875 C 4 -22.421875 5.234375 -22.796875 6.984375 -22.796875 C 8.734375 -22.796875 9.957031 -22.414062 10.65625 -21.65625 C 11.363281 -20.894531 11.753906 -19.648438 11.828125 -17.921875 C 11.898438 -15.890625 11.9375 -13.675781 11.9375 -11.28125 C 11.9375 -8.894531 11.898438 -6.675781 11.828125 -4.625 C 11.753906 -2.894531 11.363281 -1.644531 10.65625 -0.875 C 9.957031 -0.113281 8.734375 0.265625 6.984375 0.265625 Z M 6.984375 -1.734375 C 7.804688 -1.734375 8.398438 -1.90625 8.765625 -2.25 C 9.128906 -2.601562 9.328125 -3.21875 9.359375 -4.09375 C 9.398438 -5.875 9.425781 -7.515625 9.4375 -9.015625 C 9.457031 -10.515625 9.457031 -12.015625 9.4375 -13.515625 C 9.425781 -15.023438 9.398438 -16.65625 9.359375 -18.40625 C 9.328125 -19.3125 9.132812 -19.9375 8.78125 -20.28125 C 8.4375 -20.632812 7.835938 -20.8125 6.984375 -20.8125 C 6.128906 -20.8125 5.519531 -20.632812 5.15625 -20.28125 C 4.800781 -19.9375 4.609375 -19.3125 4.578125 -18.40625 C 4.523438 -16.65625 4.488281 -15.023438 4.46875 -13.515625 C 4.445312 -12.015625 4.445312 -10.515625 4.46875 -9.015625 C 4.488281 -7.515625 4.523438 -5.875 4.578125 -4.09375 C 4.609375 -3.21875 4.800781 -2.601562 5.15625 -2.25 C 5.519531 -1.90625 6.128906 -1.734375 6.984375 -1.734375 Z M 6.984375 -1.734375 "/></g></g></g><g fill="rgb(0%, 0%, 0%)" fill-opacity="1"><g transform="translate(67.763705, 81.686949)"><g><path d="M 1.984375 0 L 1.984375 -30.046875 L 4.359375 -30.046875 L 4.359375 -18.5625 L 4.09375 -12.390625 L 4.65625 -12.390625 L 6.15625 -16.609375 L 8.375 -22.53125 L 10.96875 -22.53125 L 7.140625 -13.1875 L 11.875 0 L 9.234375 0 L 5.59375 -10.484375 L 4.390625 -7.84375 L 4.390625 0 Z M 1.984375 0 "/></g></g></g><g fill="rgb(0%, 0%, 0%)" fill-opacity="1"><g transform="translate(80.758986, 81.686949)"><g><path d="M 4.953125 0.21875 C 3.753906 0.21875 2.863281 -0.128906 2.28125 -0.828125 C 1.707031 -1.523438 1.375 -2.578125 1.28125 -3.984375 C 1.25 -4.304688 1.226562 -4.628906 1.21875 -4.953125 C 1.207031 -5.285156 1.210938 -5.613281 1.234375 -5.9375 C 1.316406 -7.238281 1.625 -8.363281 2.15625 -9.3125 C 2.695312 -10.269531 3.65625 -11.144531 5.03125 -11.9375 C 5.5625 -12.238281 6.113281 -12.535156 6.6875 -12.828125 C 7.257812 -13.117188 7.832031 -13.398438 8.40625 -13.671875 L 8.40625 -18.40625 C 8.40625 -19.226562 8.25 -19.832031 7.9375 -20.21875 C 7.625 -20.613281 7.054688 -20.8125 6.234375 -20.8125 C 5.535156 -20.8125 5.007812 -20.644531 4.65625 -20.3125 C 4.300781 -19.988281 4.113281 -19.378906 4.09375 -18.484375 C 4.070312 -18.054688 4.0625 -17.476562 4.0625 -16.75 C 4.0625 -16.019531 4.070312 -15.382812 4.09375 -14.84375 L 1.65625 -14.84375 C 1.625 -15.3125 1.601562 -15.867188 1.59375 -16.515625 C 1.582031 -17.171875 1.585938 -17.75 1.609375 -18.25 C 1.691406 -19.851562 2.085938 -21.007812 2.796875 -21.71875 C 3.515625 -22.4375 4.695312 -22.796875 6.34375 -22.796875 C 8.070312 -22.796875 9.253906 -22.414062 9.890625 -21.65625 C 10.535156 -20.894531 10.882812 -19.660156 10.9375 -17.953125 L 10.890625 0 L 8.40625 0 L 8.40625 -2.03125 L 8 -2.03125 C 7.726562 -1.300781 7.359375 -0.742188 6.890625 -0.359375 C 6.429688 0.0234375 5.785156 0.21875 4.953125 0.21875 Z M 5.828125 -1.6875 C 7.046875 -1.6875 7.90625 -2.398438 8.40625 -3.828125 L 8.40625 -11.609375 C 7.988281 -11.410156 7.550781 -11.191406 7.09375 -10.953125 C 6.644531 -10.710938 6.132812 -10.378906 5.5625 -9.953125 C 4.832031 -9.429688 4.347656 -8.84375 4.109375 -8.1875 C 3.867188 -7.539062 3.738281 -6.789062 3.71875 -5.9375 C 3.695312 -5.6875 3.691406 -5.40625 3.703125 -5.09375 C 3.710938 -4.78125 3.71875 -4.457031 3.71875 -4.125 C 3.789062 -3.351562 4.007812 -2.753906 4.375 -2.328125 C 4.738281 -1.898438 5.222656 -1.6875 5.828125 -1.6875 Z M 5.828125 -1.6875 "/></g></g></g><g fill="rgb(0%, 0%, 0%)" fill-opacity="1"><g transform="translate(93.679148, 81.686949)"><g><path d="M 4.0625 0 L 0.984375 -22.53125 L 3.53125 -22.53125 L 4.734375 -11.53125 L 5.703125 -1.953125 L 6.421875 -1.953125 L 7.46875 -11.53125 L 8.609375 -22.53125 L 11.1875 -22.53125 L 7.8125 3.078125 C 7.5625 4.679688 7.082031 5.835938 6.375 6.546875 C 5.675781 7.265625 4.488281 7.625 2.8125 7.625 C 2.039062 7.625 1.289062 7.5625 0.5625 7.4375 L 0.5625 5.484375 C 0.84375 5.535156 1.1875 5.566406 1.59375 5.578125 C 2.007812 5.585938 2.40625 5.59375 2.78125 5.59375 C 3.707031 5.59375 4.328125 5.421875 4.640625 5.078125 C 4.953125 4.742188 5.171875 4.128906 5.296875 3.234375 L 5.75 0 Z M 4.0625 0 "/></g></g></g><g fill="rgb(0%, 0%, 0%)" fill-opacity="1"><g transform="translate(105.848142, 81.686949)"><g><path d="M 1.984375 0 L 1.984375 -30.046875 L 6.53125 -30.046875 C 8.238281 -30.046875 9.476562 -29.671875 10.25 -28.921875 C 11.03125 -28.171875 11.445312 -26.929688 11.5 -25.203125 C 11.570312 -23.523438 11.609375 -22.015625 11.609375 -20.671875 C 11.609375 -19.335938 11.570312 -17.984375 11.5 -16.609375 C 11.445312 -14.878906 11.03125 -13.632812 10.25 -12.875 C 9.476562 -12.125 8.238281 -11.75 6.53125 -11.75 L 4.46875 -11.75 L 4.46875 0 Z M 4.46875 -13.96875 L 6.53125 -13.96875 C 7.382812 -13.96875 8.003906 -14.175781 8.390625 -14.59375 C 8.785156 -15.007812 8.992188 -15.640625 9.015625 -16.484375 C 9.117188 -19.421875 9.117188 -22.363281 9.015625 -25.3125 C 8.992188 -26.164062 8.785156 -26.789062 8.390625 -27.1875 C 8.003906 -27.59375 7.382812 -27.796875 6.53125 -27.796875 L 4.46875 -27.796875 Z M 4.46875 -13.96875 "/></g></g></g><g fill="rgb(0%, 0%, 0%)" fill-opacity="1"><g transform="translate(118.430279, 81.686949)"><g><path d="M 1.984375 0 L 1.984375 -22.53125 L 4.46875 -22.53125 L 4.46875 -20.390625 L 5 -20.390625 C 5.195312 -21.222656 5.523438 -21.796875 5.984375 -22.109375 C 6.453125 -22.421875 7.070312 -22.578125 7.84375 -22.578125 C 8.320312 -22.578125 8.710938 -22.5625 9.015625 -22.53125 L 9.015625 -20.546875 L 7.890625 -20.546875 C 6.804688 -20.546875 6.015625 -20.347656 5.515625 -19.953125 C 5.015625 -19.566406 4.664062 -18.9375 4.46875 -18.0625 L 4.46875 0 Z M 1.984375 0 "/></g></g></g><g fill="rgb(0%, 0%, 0%)" fill-opacity="1"><g transform="translate(128.195522, 81.686949)"><g><path d="M 6.984375 0.265625 C 5.234375 0.265625 4 -0.109375 3.28125 -0.859375 C 2.570312 -1.609375 2.179688 -2.863281 2.109375 -4.625 C 2.054688 -5.976562 2.019531 -7.414062 2 -8.9375 C 1.988281 -10.46875 1.988281 -12 2 -13.53125 C 2.019531 -15.070312 2.054688 -16.535156 2.109375 -17.921875 C 2.179688 -19.671875 2.570312 -20.921875 3.28125 -21.671875 C 4 -22.421875 5.234375 -22.796875 6.984375 -22.796875 C 8.734375 -22.796875 9.957031 -22.414062 10.65625 -21.65625 C 11.363281 -20.894531 11.753906 -19.648438 11.828125 -17.921875 C 11.898438 -15.890625 11.9375 -13.675781 11.9375 -11.28125 C 11.9375 -8.894531 11.898438 -6.675781 11.828125 -4.625 C 11.753906 -2.894531 11.363281 -1.644531 10.65625 -0.875 C 9.957031 -0.113281 8.734375 0.265625 6.984375 0.265625 Z M 6.984375 -1.734375 C 7.804688 -1.734375 8.398438 -1.90625 8.765625 -2.25 C 9.128906 -2.601562 9.328125 -3.21875 9.359375 -4.09375 C 9.398438 -5.875 9.425781 -7.515625 9.4375 -9.015625 C 9.457031 -10.515625 9.457031 -12.015625 9.4375 -13.515625 C 9.425781 -15.023438 9.398438 -16.65625 9.359375 -18.40625 C 9.328125 -19.3125 9.132812 -19.9375 8.78125 -20.28125 C 8.4375 -20.632812 7.835938 -20.8125 6.984375 -20.8125 C 6.128906 -20.8125 5.519531 -20.632812 5.15625 -20.28125 C 4.800781 -19.9375 4.609375 -19.3125 4.578125 -18.40625 C 4.523438 -16.65625 4.488281 -15.023438 4.46875 -13.515625 C 4.445312 -12.015625 4.445312 -10.515625 4.46875 -9.015625 C 4.488281 -7.515625 4.523438 -5.875 4.578125 -4.09375 C 4.609375 -3.21875 4.800781 -2.601562 5.15625 -2.25 C 5.519531 -1.90625 6.128906 -1.734375 6.984375 -1.734375 Z M 6.984375 -1.734375 "/></g></g></g><g fill="rgb(0%, 0%, 0%)" fill-opacity="1"><g transform="translate(142.129767, 81.686949)"><g><path d="M 1.28125 -27.046875 L 1.28125 -30.046875 L 5.21875 -30.046875 L 5.21875 -27.046875 Z M -2.4375 7.46875 L -2.4375 5.515625 C -2.164062 5.566406 -1.820312 5.597656 -1.40625 5.609375 C -0.988281 5.628906 -0.59375 5.640625 -0.21875 5.640625 C 0.582031 5.640625 1.15625 5.46875 1.5 5.125 C 1.851562 4.789062 2.03125 4.1875 2.03125 3.3125 L 2.03125 -22.53125 L 4.5 -22.53125 L 4.5 3.125 C 4.5 4.75 4.128906 5.914062 3.390625 6.625 C 2.660156 7.34375 1.46875 7.703125 -0.1875 7.703125 C -0.96875 7.703125 -1.71875 7.625 -2.4375 7.46875 Z M -2.4375 7.46875 "/></g></g></g><g fill="rgb(0%, 0%, 0%)" fill-opacity="1"><g transform="translate(148.664961, 81.686949)"><g><path d="M 9.171875 -7.734375 L 11.5625 -7.734375 C 11.59375 -7.160156 11.613281 -6.566406 11.625 -5.953125 C 11.632812 -5.335938 11.628906 -4.78125 11.609375 -4.28125 C 11.535156 -2.675781 11.148438 -1.515625 10.453125 -0.796875 C 9.765625 -0.0859375 8.597656 0.265625 6.953125 0.265625 C 5.242188 0.265625 4.015625 -0.0859375 3.265625 -0.796875 C 2.515625 -1.515625 2.113281 -2.675781 2.0625 -4.28125 C 2.007812 -5.632812 1.976562 -7.128906 1.96875 -8.765625 C 1.957031 -10.410156 1.957031 -12.046875 1.96875 -13.671875 C 1.976562 -15.296875 2.007812 -16.800781 2.0625 -18.1875 C 2.132812 -19.832031 2.546875 -21.007812 3.296875 -21.71875 C 4.054688 -22.4375 5.257812 -22.796875 6.90625 -22.796875 C 8.507812 -22.796875 9.675781 -22.445312 10.40625 -21.75 C 11.132812 -21.050781 11.535156 -19.882812 11.609375 -18.25 C 11.628906 -17.675781 11.644531 -16.707031 11.65625 -15.34375 C 11.675781 -13.976562 11.644531 -12.445312 11.5625 -10.75 L 4.5 -10.75 C 4.5 -9.695312 4.503906 -8.632812 4.515625 -7.5625 C 4.535156 -6.5 4.554688 -5.34375 4.578125 -4.09375 C 4.578125 -3.1875 4.757812 -2.566406 5.125 -2.234375 C 5.488281 -1.898438 6.070312 -1.734375 6.875 -1.734375 C 7.675781 -1.734375 8.242188 -1.898438 8.578125 -2.234375 C 8.921875 -2.566406 9.117188 -3.1875 9.171875 -4.09375 C 9.191406 -5.019531 9.191406 -6.234375 9.171875 -7.734375 Z M 6.90625 -20.8125 C 6.082031 -20.8125 5.488281 -20.628906 5.125 -20.265625 C 4.757812 -19.898438 4.578125 -19.304688 4.578125 -18.484375 C 4.554688 -17.378906 4.535156 -16.363281 4.515625 -15.4375 C 4.503906 -14.507812 4.5 -13.597656 4.5 -12.703125 L 9.203125 -12.703125 C 9.203125 -14.023438 9.203125 -15.191406 9.203125 -16.203125 C 9.203125 -17.222656 9.191406 -17.984375 9.171875 -18.484375 C 9.117188 -19.304688 8.914062 -19.898438 8.5625 -20.265625 C 8.207031 -20.628906 7.65625 -20.8125 6.90625 -20.8125 Z M 6.90625 -20.8125 "/></g></g></g><g fill="rgb(0%, 0%, 0%)" fill-opacity="1"><g transform="translate(161.923147, 81.686949)"><g><path d="M 2.0625 -4.3125 C 2.007812 -5.664062 1.976562 -7.15625 1.96875 -8.78125 C 1.957031 -10.414062 1.957031 -12.046875 1.96875 -13.671875 C 1.976562 -15.296875 2.007812 -16.800781 2.0625 -18.1875 C 2.132812 -19.832031 2.539062 -21.007812 3.28125 -21.71875 C 4.019531 -22.4375 5.21875 -22.796875 6.875 -22.796875 C 8.53125 -22.796875 9.722656 -22.445312 10.453125 -21.75 C 11.191406 -21.050781 11.578125 -19.882812 11.609375 -18.25 C 11.628906 -17.78125 11.632812 -17.238281 11.625 -16.625 C 11.613281 -16.007812 11.59375 -15.414062 11.5625 -14.84375 L 9.125 -14.84375 C 9.175781 -15.46875 9.195312 -16.113281 9.1875 -16.78125 C 9.175781 -17.457031 9.171875 -18.023438 9.171875 -18.484375 C 9.140625 -19.378906 8.945312 -19.988281 8.59375 -20.3125 C 8.25 -20.644531 7.675781 -20.8125 6.875 -20.8125 C 6.050781 -20.8125 5.460938 -20.644531 5.109375 -20.3125 C 4.753906 -19.988281 4.566406 -19.378906 4.546875 -18.484375 C 4.515625 -16.703125 4.492188 -15.050781 4.484375 -13.53125 C 4.472656 -12.019531 4.472656 -10.515625 4.484375 -9.015625 C 4.492188 -7.515625 4.515625 -5.875 4.546875 -4.09375 C 4.566406 -3.1875 4.757812 -2.566406 5.125 -2.234375 C 5.488281 -1.898438 6.070312 -1.734375 6.875 -1.734375 C 7.675781 -1.734375 8.25 -1.898438 8.59375 -2.234375 C 8.945312 -2.566406 9.140625 -3.1875 9.171875 -4.09375 C 9.171875 -4.570312 9.175781 -5.109375 9.1875 -5.703125 C 9.195312 -6.304688 9.175781 -6.984375 9.125 -7.734375 L 11.5625 -7.734375 C 11.644531 -6.535156 11.660156 -5.394531 11.609375 -4.3125 C 11.554688 -2.6875 11.164062 -1.515625 10.4375 -0.796875 C 9.71875 -0.0859375 8.53125 0.265625 6.875 0.265625 C 5.195312 0.265625 3.988281 -0.0859375 3.25 -0.796875 C 2.507812 -1.515625 2.113281 -2.6875 2.0625 -4.3125 Z M 2.0625 -4.3125 "/></g></g></g><g fill="rgb(0%, 0%, 0%)" fill-opacity="1"><g transform="translate(175.181333, 81.686949)"><g><path d="M 7.890625 0.265625 C 6.140625 0.265625 4.9375 -0.0859375 4.28125 -0.796875 C 3.632812 -1.515625 3.296875 -2.6875 3.265625 -4.3125 L 3.265625 -20.546875 L 1.734375 -20.546875 L 1.734375 -22.53125 L 3.3125 -22.53125 L 3.3125 -28.921875 L 5.859375 -28.921875 L 5.828125 -22.53125 L 9.171875 -22.53125 L 9.171875 -20.546875 L 5.78125 -20.546875 L 5.78125 -4.09375 C 5.78125 -3.164062 5.90625 -2.539062 6.15625 -2.21875 C 6.40625 -1.894531 6.992188 -1.734375 7.921875 -1.734375 C 8.273438 -1.734375 8.5625 -1.738281 8.78125 -1.75 C 9.007812 -1.757812 9.265625 -1.789062 9.546875 -1.84375 L 9.546875 0.078125 C 9.066406 0.203125 8.515625 0.265625 7.890625 0.265625 Z M 7.890625 0.265625 "/></g></g></g><g fill="rgb(0%, 0%, 0%)" fill-opacity="1"><g transform="translate(185.847981, 81.686949)"><g><path d="M 6.3125 0.265625 C 4.6875 0.265625 3.546875 -0.0859375 2.890625 -0.796875 C 2.242188 -1.515625 1.894531 -2.6875 1.84375 -4.3125 C 1.789062 -5.394531 1.800781 -6.535156 1.875 -7.734375 L 4.09375 -7.734375 C 4.070312 -6.984375 4.0625 -6.304688 4.0625 -5.703125 C 4.0625 -5.109375 4.0625 -4.570312 4.0625 -4.09375 C 4.082031 -3.1875 4.257812 -2.566406 4.59375 -2.234375 C 4.9375 -1.898438 5.507812 -1.734375 6.3125 -1.734375 C 7.164062 -1.734375 7.765625 -1.898438 8.109375 -2.234375 C 8.460938 -2.566406 8.648438 -3.1875 8.671875 -4.09375 C 8.703125 -4.539062 8.71875 -5.003906 8.71875 -5.484375 C 8.71875 -5.960938 8.71875 -6.398438 8.71875 -6.796875 C 8.6875 -7.722656 8.570312 -8.429688 8.375 -8.921875 C 8.175781 -9.410156 7.75 -9.765625 7.09375 -9.984375 L 5.328125 -10.59375 C 4.023438 -11.019531 3.117188 -11.617188 2.609375 -12.390625 C 2.097656 -13.171875 1.828125 -14.390625 1.796875 -16.046875 C 1.773438 -16.421875 1.769531 -16.773438 1.78125 -17.109375 C 1.789062 -17.441406 1.796875 -17.800781 1.796875 -18.1875 C 1.828125 -19.832031 2.179688 -21.007812 2.859375 -21.71875 C 3.535156 -22.4375 4.734375 -22.796875 6.453125 -22.796875 C 8.085938 -22.796875 9.226562 -22.445312 9.875 -21.75 C 10.53125 -21.050781 10.882812 -19.882812 10.9375 -18.25 C 10.9375 -17.78125 10.9375 -17.238281 10.9375 -16.625 C 10.9375 -16.007812 10.921875 -15.414062 10.890625 -14.84375 L 8.5625 -14.84375 C 8.613281 -15.46875 8.632812 -16.113281 8.625 -16.78125 C 8.613281 -17.457031 8.609375 -18.023438 8.609375 -18.484375 C 8.578125 -19.378906 8.410156 -19.988281 8.109375 -20.3125 C 7.804688 -20.644531 7.253906 -20.8125 6.453125 -20.8125 C 5.628906 -20.8125 5.0625 -20.644531 4.75 -20.3125 C 4.4375 -19.988281 4.269531 -19.378906 4.25 -18.484375 C 4.25 -18.054688 4.238281 -17.664062 4.21875 -17.3125 C 4.207031 -16.96875 4.203125 -16.609375 4.203125 -16.234375 C 4.234375 -15.273438 4.328125 -14.507812 4.484375 -13.9375 C 4.648438 -13.363281 5.109375 -12.953125 5.859375 -12.703125 L 7.515625 -12.203125 C 8.710938 -11.828125 9.601562 -11.242188 10.1875 -10.453125 C 10.78125 -9.671875 11.078125 -8.488281 11.078125 -6.90625 C 11.078125 -6.476562 11.070312 -6.035156 11.0625 -5.578125 C 11.050781 -5.117188 11.03125 -4.675781 11 -4.25 C 10.957031 -2.644531 10.585938 -1.488281 9.890625 -0.78125 C 9.203125 -0.0820312 8.007812 0.265625 6.3125 0.265625 Z M 6.3125 0.265625 "/></g></g></g><g fill="rgb(0%, 0%, 0%)" fill-opacity="1"><g transform="translate(198.655464, 81.686949)"><g><path d="M 0.34375 7.546875 C 2.175781 7.546875 3.679688 7.054688 4.859375 6.078125 C 6.035156 5.109375 6.625 3.632812 6.625 1.65625 C 6.625 1.25 6.601562 0.613281 6.5625 -0.25 C 6.519531 -1.113281 6.476562 -2.03125 6.4375 -3 C 6.40625 -3.976562 6.367188 -4.851562 6.328125 -5.625 C 6.296875 -6.40625 6.28125 -6.910156 6.28125 -7.140625 C 6.28125 -8.140625 6.445312 -8.820312 6.78125 -9.1875 C 7.125 -9.550781 7.582031 -9.742188 8.15625 -9.765625 L 8.875 -9.765625 L 8.875 -12.734375 L 8.15625 -12.734375 C 7.582031 -12.753906 7.125 -12.941406 6.78125 -13.296875 C 6.445312 -13.648438 6.28125 -14.335938 6.28125 -15.359375 C 6.28125 -15.585938 6.296875 -16.085938 6.328125 -16.859375 C 6.367188 -17.640625 6.40625 -18.515625 6.4375 -19.484375 C 6.476562 -20.460938 6.507812 -21.382812 6.53125 -22.25 C 6.5625 -23.113281 6.578125 -23.75 6.578125 -24.15625 C 6.578125 -26.15625 5.992188 -27.632812 4.828125 -28.59375 C 3.671875 -29.5625 2.175781 -30.046875 0.34375 -30.046875 L 0.34375 -28.578125 C 1.46875 -28.578125 2.378906 -28.171875 3.078125 -27.359375 C 3.785156 -26.546875 4.140625 -25.476562 4.140625 -24.15625 C 4.140625 -23.78125 4.125 -23.203125 4.09375 -22.421875 C 4.070312 -21.648438 4.039062 -20.816406 4 -19.921875 C 3.96875 -19.035156 3.9375 -18.226562 3.90625 -17.5 C 3.882812 -16.78125 3.875 -16.28125 3.875 -16 C 3.875 -14.800781 4.085938 -13.804688 4.515625 -13.015625 C 4.941406 -12.222656 5.566406 -11.738281 6.390625 -11.5625 L 6.390625 -10.96875 C 5.566406 -10.789062 4.941406 -10.300781 4.515625 -9.5 C 4.085938 -8.695312 3.875 -7.707031 3.875 -6.53125 C 3.875 -6.257812 3.882812 -5.753906 3.90625 -5.015625 C 3.9375 -4.273438 3.96875 -3.457031 4 -2.5625 C 4.039062 -1.675781 4.070312 -0.84375 4.09375 -0.0625 C 4.125 0.707031 4.140625 1.28125 4.140625 1.65625 C 4.140625 2.976562 3.785156 4.046875 3.078125 4.859375 C 2.378906 5.671875 1.46875 6.078125 0.34375 6.078125 Z M 0.34375 7.546875 "/></g></g></g><g fill="rgb(0%, 0%, 0%)" fill-opacity="1"><g transform="translate(45.281728, 90.272603)"><g><path d="M 8.53125 3.140625 L -0.03125 3.140625 L -0.03125 1.109375 L 8.53125 1.109375 Z M 8.53125 3.140625 "/></g></g></g><g fill="rgb(0%, 0%, 0%)" fill-opacity="1"><g transform="translate(53.777821, 90.272603)"><g><path d="M 8.53125 3.140625 L -0.03125 3.140625 L -0.03125 1.109375 L 8.53125 1.109375 Z M 8.53125 3.140625 "/></g></g></g><g fill="rgb(0%, 0%, 0%)" fill-opacity="1"><g transform="translate(62.273915, 90.272603)"><g><path d="M 8.53125 3.140625 L -0.03125 3.140625 L -0.03125 1.109375 L 8.53125 1.109375 Z M 8.53125 3.140625 "/></g></g></g><g fill="rgb(0%, 0%, 0%)" fill-opacity="1"><g transform="translate(70.770008, 90.272603)"><g><path d="M 8.53125 3.140625 L -0.03125 3.140625 L -0.03125 1.109375 L 8.53125 1.109375 Z M 8.53125 3.140625 "/></g></g></g><g fill="rgb(0%, 0%, 0%)" fill-opacity="1"><g transform="translate(79.266101, 90.272603)"><g><path d="M 8.53125 3.140625 L -0.03125 3.140625 L -0.03125 1.109375 L 8.53125 1.109375 Z M 8.53125 3.140625 "/></g></g></g><g fill="rgb(0%, 0%, 0%)" fill-opacity="1"><g transform="translate(87.762194, 90.272603)"><g><path d="M 8.53125 3.140625 L -0.03125 3.140625 L -0.03125 1.109375 L 8.53125 1.109375 Z M 8.53125 3.140625 "/></g></g></g><g fill="rgb(0%, 0%, 0%)" fill-opacity="1"><g transform="translate(96.258288, 90.272603)"><g><path d="M 8.53125 3.140625 L -0.03125 3.140625 L -0.03125 1.109375 L 8.53125 1.109375 Z M 8.53125 3.140625 "/></g></g></g><g fill="rgb(0%, 0%, 0%)" fill-opacity="1"><g transform="translate(104.754381, 90.272603)"><g><path d="M 8.53125 3.140625 L -0.03125 3.140625 L -0.03125 1.109375 L 8.53125 1.109375 Z M 8.53125 3.140625 "/></g></g></g><g fill="rgb(0%, 0%, 0%)" fill-opacity="1"><g transform="translate(113.250474, 90.272603)"><g><path d="M 8.53125 3.140625 L -0.03125 3.140625 L -0.03125 1.109375 L 8.53125 1.109375 Z M 8.53125 3.140625 "/></g></g></g><g fill="rgb(0%, 0%, 0%)" fill-opacity="1"><g transform="translate(121.746567, 90.272603)"><g><path d="M 8.53125 3.140625 L -0.03125 3.140625 L -0.03125 1.109375 L 8.53125 1.109375 Z M 8.53125 3.140625 "/></g></g></g><g fill="rgb(0%, 0%, 0%)" fill-opacity="1"><g transform="translate(130.242661, 90.272603)"><g><path d="M 8.53125 3.140625 L -0.03125 3.140625 L -0.03125 1.109375 L 8.53125 1.109375 Z M 8.53125 3.140625 "/></g></g></g><g fill="rgb(0%, 0%, 0%)" fill-opacity="1"><g transform="translate(138.738754, 90.272603)"><g><path d="M 8.53125 3.140625 L -0.03125 3.140625 L -0.03125 1.109375 L 8.53125 1.109375 Z M 8.53125 3.140625 "/></g></g></g><g fill="rgb(0%, 0%, 0%)" fill-opacity="1"><g transform="translate(147.234847, 90.272603)"><g><path d="M 8.53125 3.140625 L -0.03125 3.140625 L -0.03125 1.109375 L 8.53125 1.109375 Z M 8.53125 3.140625 "/></g></g></g><g fill="rgb(0%, 0%, 0%)" fill-opacity="1"><g transform="translate(155.73094, 90.272603)"><g><path d="M 8.53125 3.140625 L -0.03125 3.140625 L -0.03125 1.109375 L 8.53125 1.109375 Z M 8.53125 3.140625 "/></g></g></g><g fill="rgb(0%, 0%, 0%)" fill-opacity="1"><g transform="translate(164.227034, 90.272603)"><g><path d="M 8.53125 3.140625 L -0.03125 3.140625 L -0.03125 1.109375 L 8.53125 1.109375 Z M 8.53125 3.140625 "/></g></g></g><g fill="rgb(0%, 0%, 0%)" fill-opacity="1"><g transform="translate(172.723127, 90.272603)"><g><path d="M 8.53125 3.140625 L -0.03125 3.140625 L -0.03125 1.109375 L 8.53125 1.109375 Z M 8.53125 3.140625 "/></g></g></g><g fill="rgb(0%, 0%, 0%)" fill-opacity="1"><g transform="translate(181.21922, 90.272603)"><g><path d="M 8.53125 3.140625 L -0.03125 3.140625 L -0.03125 1.109375 L 8.53125 1.109375 Z M 8.53125 3.140625 "/></g></g></g><g fill="rgb(0%, 0%, 0%)" fill-opacity="1"><g transform="translate(189.715313, 90.272603)"><g><path d="M 8.53125 3.140625 L -0.03125 3.140625 L -0.03125 1.109375 L 8.53125 1.109375 Z M 8.53125 3.140625 "/></g></g></g><g fill="rgb(0%, 0%, 0%)" fill-opacity="1"><g transform="translate(198.211407, 90.272603)"><g><path d="M 8.53125 3.140625 L -0.03125 3.140625 L -0.03125 1.109375 L 8.53125 1.109375 Z M 8.53125 3.140625 "/></g></g></g></svg>