<svg xmlns="http://www.w3.org/2000/svg" xmlns:xlink="http://www.w3.org/1999/xlink" zoomAndPan="magnify" preserveAspectRatio="xMidYMid meet" version="1.0" viewBox="-25.2 -14.4 302.4 172.8"><defs><g/></defs><rect x="-25.2" width="302.4" fill="rgb(100%, 100%, 100%)" y="-14.4" height="172.799997" fill-opacity="1"/><rect x="-25.2" width="302.4" fill="rgb(0%, 0%, 0%)" y="-14.4" height="172.799997" fill-opacity="1"/><rect x="-25.2" width="302.4" fill="rgb(100%, 100%, 100%)" y="-14.4" height="172.799997" fill-opacity="1"/><rect x="-25.2" width="302.4" fill="rgb(0%, 0%, 0%)" y="-14.4" height="172.799997" fill-opacity="1"/><g fill="rgb(100%, 100%, 100%)" fill-opacity="1"><g transform="translate(51.953766, 84.679022)"><g><path d="M 8.625 6.734375 C 6.988281 6.734375 5.644531 6.296875 4.59375 5.421875 C 3.539062 4.554688 3.015625 3.238281 3.015625 1.46875 C 3.015625 1.113281 3.03125 0.550781 3.0625 -0.21875 C 3.101562 -0.988281 3.140625 -1.804688 3.171875 -2.671875 C 3.203125 -3.546875 3.234375 -4.328125 3.265625 -5.015625 C 3.296875 -5.710938 3.3125 -6.164062 3.3125 -6.375 C 3.3125 -7.269531 3.160156 -7.878906 2.859375 -8.203125 C 2.566406 -8.523438 2.160156 -8.695312 1.640625 -8.71875 L 1 -8.71875 L 1 -11.359375 L 1.640625 -11.359375 C 2.160156 -11.390625 2.566406 -11.5625 2.859375 -11.875 C 3.160156 -12.1875 3.3125 -12.800781 3.3125 -13.71875 C 3.3125 -13.914062 3.296875 -14.359375 3.265625 -15.046875 C 3.234375 -15.742188 3.203125 -16.523438 3.171875 -17.390625 C 3.140625 -18.265625 3.109375 -19.085938 3.078125 -19.859375 C 3.054688 -20.640625 3.046875 -21.207031 3.046875 -21.5625 C 3.046875 -23.351562 3.566406 -24.675781 4.609375 -25.53125 C 5.648438 -26.394531 6.988281 -26.828125 8.625 -26.828125 L 8.625 -25.515625 C 7.613281 -25.515625 6.796875 -25.148438 6.171875 -24.421875 C 5.546875 -23.703125 5.234375 -22.75 5.234375 -21.5625 C 5.234375 -21.226562 5.242188 -20.710938 5.265625 -20.015625 C 5.285156 -19.328125 5.3125 -18.582031 5.34375 -17.78125 C 5.382812 -16.988281 5.414062 -16.269531 5.4375 -15.625 C 5.457031 -14.976562 5.46875 -14.53125 5.46875 -14.28125 C 5.46875 -13.207031 5.273438 -12.316406 4.890625 -11.609375 C 4.515625 -10.910156 3.957031 -10.484375 3.21875 -10.328125 L 3.21875 -9.796875 C 3.957031 -9.640625 4.515625 -9.203125 4.890625 -8.484375 C 5.273438 -7.765625 5.46875 -6.878906 5.46875 -5.828125 C 5.46875 -5.585938 5.457031 -5.132812 5.4375 -4.46875 C 5.414062 -3.8125 5.382812 -3.085938 5.34375 -2.296875 C 5.3125 -1.503906 5.285156 -0.757812 5.265625 -0.0625 C 5.242188 0.625 5.234375 1.132812 5.234375 1.46875 C 5.234375 2.65625 5.546875 3.613281 6.171875 4.34375 C 6.796875 5.070312 7.613281 5.4375 8.625 5.4375 Z M 8.625 6.734375 "/></g></g></g><g fill="rgb(100%, 100%, 100%)" fill-opacity="1"><g transform="translate(61.576083, 84.679022)"><g><path d="M 6.234375 0.234375 C 4.671875 0.234375 3.570312 -0.0976562 2.9375 -0.765625 C 2.300781 -1.441406 1.945312 -2.5625 1.875 -4.125 C 1.832031 -5.332031 1.804688 -6.617188 1.796875 -7.984375 C 1.785156 -9.347656 1.785156 -10.71875 1.796875 -12.09375 C 1.804688 -13.46875 1.832031 -14.769531 1.875 -16 C 1.945312 -17.5625 2.300781 -18.675781 2.9375 -19.34375 C 3.570312 -20.019531 4.671875 -20.359375 6.234375 -20.359375 C 7.796875 -20.359375 8.890625 -20.015625 9.515625 -19.328125 C 10.148438 -18.648438 10.5 -17.539062 10.5625 -16 C 10.625 -14.1875 10.65625 -12.210938 10.65625 -10.078125 C 10.65625 -7.941406 10.625 -5.957031 10.5625 -4.125 C 10.5 -2.582031 10.148438 -1.46875 9.515625 -0.78125 C 8.890625 -0.101562 7.796875 0.234375 6.234375 0.234375 Z M 6.234375 -1.546875 C 6.972656 -1.546875 7.503906 -1.703125 7.828125 -2.015625 C 8.148438 -2.328125 8.320312 -2.875 8.34375 -3.65625 C 8.394531 -5.238281 8.425781 -6.703125 8.4375 -8.046875 C 8.445312 -9.390625 8.445312 -10.726562 8.4375 -12.0625 C 8.425781 -13.40625 8.394531 -14.863281 8.34375 -16.4375 C 8.320312 -17.238281 8.15625 -17.796875 7.84375 -18.109375 C 7.53125 -18.421875 6.992188 -18.578125 6.234375 -18.578125 C 5.472656 -18.578125 4.929688 -18.421875 4.609375 -18.109375 C 4.285156 -17.796875 4.113281 -17.238281 4.09375 -16.4375 C 4.050781 -14.863281 4.015625 -13.40625 3.984375 -12.0625 C 3.960938 -10.726562 3.960938 -9.390625 3.984375 -8.046875 C 4.015625 -6.703125 4.050781 -5.238281 4.09375 -3.65625 C 4.113281 -2.875 4.285156 -2.328125 4.609375 -2.015625 C 4.929688 -1.703125 5.472656 -1.546875 6.234375 -1.546875 Z M 6.234375 -1.546875 "/></g></g></g><g fill="rgb(100%, 100%, 100%)" fill-opacity="1"><g transform="translate(74.014689, 84.679022)"><g><path d="M 1.78125 0 L 1.78125 -26.828125 L 3.890625 -26.828125 L 3.890625 -16.5625 L 3.65625 -11.0625 L 4.15625 -11.0625 L 5.5 -14.828125 L 7.484375 -20.125 L 9.796875 -20.125 L 6.375 -11.765625 L 10.59375 0 L 8.25 0 L 5 -9.359375 L 3.921875 -7.015625 L 3.921875 0 Z M 1.78125 0 "/></g></g></g><g fill="rgb(100%, 100%, 100%)" fill-opacity="1"><g transform="translate(85.615118, 84.679022)"><g><path d="M 4.421875 0.203125 C 3.347656 0.203125 2.554688 -0.109375 2.046875 -0.734375 C 1.535156 -1.359375 1.234375 -2.296875 1.140625 -3.546875 C 1.117188 -3.835938 1.101562 -4.128906 1.09375 -4.421875 C 1.082031 -4.710938 1.085938 -5.003906 1.109375 -5.296875 C 1.171875 -6.460938 1.441406 -7.46875 1.921875 -8.3125 C 2.410156 -9.164062 3.269531 -9.945312 4.5 -10.65625 C 4.96875 -10.925781 5.457031 -11.191406 5.96875 -11.453125 C 6.476562 -11.710938 6.992188 -11.960938 7.515625 -12.203125 L 7.515625 -16.4375 C 7.515625 -17.164062 7.375 -17.703125 7.09375 -18.046875 C 6.8125 -18.398438 6.300781 -18.578125 5.5625 -18.578125 C 4.9375 -18.578125 4.46875 -18.429688 4.15625 -18.140625 C 3.84375 -17.847656 3.675781 -17.300781 3.65625 -16.5 C 3.632812 -16.113281 3.625 -15.597656 3.625 -14.953125 C 3.625 -14.304688 3.632812 -13.738281 3.65625 -13.25 L 1.46875 -13.25 C 1.445312 -13.664062 1.429688 -14.164062 1.421875 -14.75 C 1.410156 -15.332031 1.414062 -15.847656 1.4375 -16.296875 C 1.507812 -17.722656 1.863281 -18.753906 2.5 -19.390625 C 3.132812 -20.035156 4.191406 -20.359375 5.671875 -20.359375 C 7.210938 -20.359375 8.265625 -20.015625 8.828125 -19.328125 C 9.398438 -18.648438 9.707031 -17.550781 9.75 -16.03125 L 9.71875 0 L 7.515625 0 L 7.515625 -1.8125 L 7.140625 -1.8125 C 6.890625 -1.164062 6.554688 -0.664062 6.140625 -0.3125 C 5.734375 0.03125 5.160156 0.203125 4.421875 0.203125 Z M 5.203125 -1.515625 C 6.296875 -1.515625 7.066406 -2.148438 7.515625 -3.421875 L 7.515625 -10.359375 C 7.128906 -10.179688 6.734375 -9.984375 6.328125 -9.765625 C 5.929688 -9.554688 5.476562 -9.265625 4.96875 -8.890625 C 4.3125 -8.421875 3.878906 -7.894531 3.671875 -7.3125 C 3.460938 -6.726562 3.34375 -6.054688 3.3125 -5.296875 C 3.289062 -5.078125 3.285156 -4.828125 3.296875 -4.546875 C 3.304688 -4.265625 3.3125 -3.976562 3.3125 -3.6875 C 3.382812 -3 3.582031 -2.460938 3.90625 -2.078125 C 4.226562 -1.703125 4.660156 -1.515625 5.203125 -1.515625 Z M 5.203125 -1.515625 "/></g></g></g><g fill="rgb(100%, 100%, 100%)" fill-opacity="1"><g transform="translate(97.148496, 84.679022)"><g><path d="M 3.625 0 L 0.875 -20.125 L 3.15625 -20.125 L 4.21875 -10.296875 L 5.09375 -1.75 L 5.734375 -1.75 L 6.671875 -10.296875 L 7.671875 -20.125 L 10 -20.125 L 6.96875 2.75 C 6.75 4.175781 6.328125 5.207031 5.703125 5.84375 C 5.078125 6.488281 4.015625 6.8125 2.515625 6.8125 C 1.816406 6.8125 1.144531 6.753906 0.5 6.640625 L 0.5 4.890625 C 0.75 4.941406 1.054688 4.972656 1.421875 4.984375 C 1.796875 4.992188 2.148438 5 2.484375 5 C 3.304688 5 3.859375 4.847656 4.140625 4.546875 C 4.421875 4.242188 4.617188 3.691406 4.734375 2.890625 L 5.125 0 Z M 3.625 0 "/></g></g></g><g fill="rgb(100%, 100%, 100%)" fill-opacity="1"><g transform="translate(108.01133, 84.679022)"><g><path d="M 1.78125 0 L 1.78125 -26.828125 L 5.828125 -26.828125 C 7.347656 -26.828125 8.453125 -26.488281 9.140625 -25.8125 C 9.835938 -25.144531 10.210938 -24.039062 10.265625 -22.5 C 10.328125 -21 10.359375 -19.648438 10.359375 -18.453125 C 10.359375 -17.265625 10.328125 -16.054688 10.265625 -14.828125 C 10.210938 -13.273438 9.835938 -12.164062 9.140625 -11.5 C 8.453125 -10.832031 7.347656 -10.5 5.828125 -10.5 L 3.984375 -10.5 L 3.984375 0 Z M 3.984375 -12.46875 L 5.828125 -12.46875 C 6.585938 -12.46875 7.140625 -12.648438 7.484375 -13.015625 C 7.835938 -13.390625 8.023438 -13.957031 8.046875 -14.71875 C 8.140625 -17.332031 8.140625 -19.957031 8.046875 -22.59375 C 8.023438 -23.351562 7.835938 -23.910156 7.484375 -24.265625 C 7.140625 -24.628906 6.585938 -24.8125 5.828125 -24.8125 L 3.984375 -24.8125 Z M 3.984375 -12.46875 "/></g></g></g><g fill="rgb(100%, 100%, 100%)" fill-opacity="1"><g transform="translate(119.242961, 84.679022)"><g><path d="M 1.78125 0 L 1.78125 -20.125 L 3.984375 -20.125 L 3.984375 -18.203125 L 4.453125 -18.203125 C 4.640625 -18.941406 4.9375 -19.453125 5.34375 -19.734375 C 5.757812 -20.015625 6.316406 -20.15625 7.015625 -20.15625 C 7.429688 -20.15625 7.773438 -20.144531 8.046875 -20.125 L 8.046875 -18.34375 L 7.046875 -18.34375 C 6.078125 -18.34375 5.367188 -18.164062 4.921875 -17.8125 C 4.484375 -17.46875 4.171875 -16.90625 3.984375 -16.125 L 3.984375 0 Z M 1.78125 0 "/></g></g></g><g fill="rgb(100%, 100%, 100%)" fill-opacity="1"><g transform="translate(127.960052, 84.679022)"><g><path d="M 6.234375 0.234375 C 4.671875 0.234375 3.570312 -0.0976562 2.9375 -0.765625 C 2.300781 -1.441406 1.945312 -2.5625 1.875 -4.125 C 1.832031 -5.332031 1.804688 -6.617188 1.796875 -7.984375 C 1.785156 -9.347656 1.785156 -10.71875 1.796875 -12.09375 C 1.804688 -13.46875 1.832031 -14.769531 1.875 -16 C 1.945312 -17.5625 2.300781 -18.675781 2.9375 -19.34375 C 3.570312 -20.019531 4.671875 -20.359375 6.234375 -20.359375 C 7.796875 -20.359375 8.890625 -20.015625 9.515625 -19.328125 C 10.148438 -18.648438 10.5 -17.539062 10.5625 -16 C 10.625 -14.1875 10.65625 -12.210938 10.65625 -10.078125 C 10.65625 -7.941406 10.625 -5.957031 10.5625 -4.125 C 10.5 -2.582031 10.148438 -1.46875 9.515625 -0.78125 C 8.890625 -0.101562 7.796875 0.234375 6.234375 0.234375 Z M 6.234375 -1.546875 C 6.972656 -1.546875 7.503906 -1.703125 7.828125 -2.015625 C 8.148438 -2.328125 8.320312 -2.875 8.34375 -3.65625 C 8.394531 -5.238281 8.425781 -6.703125 8.4375 -8.046875 C 8.445312 -9.390625 8.445312 -10.726562 8.4375 -12.0625 C 8.425781 -13.40625 8.394531 -14.863281 8.34375 -16.4375 C 8.320312 -17.238281 8.15625 -17.796875 7.84375 -18.109375 C 7.53125 -18.421875 6.992188 -18.578125 6.234375 -18.578125 C 5.472656 -18.578125 4.929688 -18.421875 4.609375 -18.109375 C 4.285156 -17.796875 4.113281 -17.238281 4.09375 -16.4375 C 4.050781 -14.863281 4.015625 -13.40625 3.984375 -12.0625 C 3.960938 -10.726562 3.960938 -9.390625 3.984375 -8.046875 C 4.015625 -6.703125 4.050781 -5.238281 4.09375 -3.65625 C 4.113281 -2.875 4.285156 -2.328125 4.609375 -2.015625 C 4.929688 -1.703125 5.472656 -1.546875 6.234375 -1.546875 Z M 6.234375 -1.546875 "/></g></g></g><g fill="rgb(100%, 100%, 100%)" fill-opacity="1"><g transform="translate(140.398657, 84.679022)"><g><path d="M 1.140625 -24.140625 L 1.140625 -26.828125 L 4.65625 -26.828125 L 4.65625 -24.140625 Z M -2.171875 6.671875 L -2.171875 4.921875 C -1.929688 4.972656 -1.625 5.003906 -1.25 5.015625 C -0.882812 5.023438 -0.535156 5.03125 -0.203125 5.03125 C 0.515625 5.03125 1.03125 4.878906 1.34375 4.578125 C 1.65625 4.273438 1.8125 3.734375 1.8125 2.953125 L 1.8125 -20.125 L 4.03125 -20.125 L 4.03125 2.78125 C 4.03125 4.238281 3.695312 5.285156 3.03125 5.921875 C 2.375 6.554688 1.304688 6.875 -0.171875 6.875 C -0.859375 6.875 -1.523438 6.804688 -2.171875 6.671875 Z M -2.171875 6.671875 "/></g></g></g><g fill="rgb(100%, 100%, 100%)" fill-opacity="1"><g transform="translate(146.232397, 84.679022)"><g><path d="M 8.1875 -6.90625 L 10.328125 -6.90625 C 10.347656 -6.394531 10.363281 -5.863281 10.375 -5.3125 C 10.382812 -4.769531 10.378906 -4.273438 10.359375 -3.828125 C 10.296875 -2.390625 9.957031 -1.351562 9.34375 -0.71875 C 8.726562 -0.0820312 7.679688 0.234375 6.203125 0.234375 C 4.679688 0.234375 3.582031 -0.0820312 2.90625 -0.71875 C 2.238281 -1.351562 1.882812 -2.390625 1.84375 -3.828125 C 1.800781 -5.035156 1.773438 -6.367188 1.765625 -7.828125 C 1.753906 -9.296875 1.753906 -10.753906 1.765625 -12.203125 C 1.773438 -13.660156 1.800781 -15.003906 1.84375 -16.234375 C 1.90625 -17.703125 2.269531 -18.753906 2.9375 -19.390625 C 3.613281 -20.035156 4.691406 -20.359375 6.171875 -20.359375 C 7.597656 -20.359375 8.632812 -20.039062 9.28125 -19.40625 C 9.9375 -18.78125 10.296875 -17.742188 10.359375 -16.296875 C 10.378906 -15.785156 10.394531 -14.921875 10.40625 -13.703125 C 10.414062 -12.484375 10.390625 -11.113281 10.328125 -9.59375 L 4.03125 -9.59375 C 4.03125 -8.65625 4.035156 -7.707031 4.046875 -6.75 C 4.054688 -5.800781 4.070312 -4.769531 4.09375 -3.65625 C 4.09375 -2.851562 4.253906 -2.300781 4.578125 -2 C 4.898438 -1.695312 5.421875 -1.546875 6.140625 -1.546875 C 6.847656 -1.546875 7.351562 -1.695312 7.65625 -2 C 7.957031 -2.300781 8.132812 -2.851562 8.1875 -3.65625 C 8.207031 -4.476562 8.207031 -5.5625 8.1875 -6.90625 Z M 6.171875 -18.578125 C 5.429688 -18.578125 4.898438 -18.414062 4.578125 -18.09375 C 4.253906 -17.769531 4.09375 -17.238281 4.09375 -16.5 C 4.070312 -15.507812 4.054688 -14.601562 4.046875 -13.78125 C 4.035156 -12.957031 4.03125 -12.140625 4.03125 -11.328125 L 8.21875 -11.328125 C 8.21875 -12.515625 8.21875 -13.5625 8.21875 -14.46875 C 8.21875 -15.375 8.207031 -16.050781 8.1875 -16.5 C 8.132812 -17.238281 7.953125 -17.769531 7.640625 -18.09375 C 7.328125 -18.414062 6.835938 -18.578125 6.171875 -18.578125 Z M 6.171875 -18.578125 "/></g></g></g><g fill="rgb(100%, 100%, 100%)" fill-opacity="1"><g transform="translate(158.067521, 84.679022)"><g><path d="M 1.84375 -3.859375 C 1.800781 -5.066406 1.773438 -6.394531 1.765625 -7.84375 C 1.753906 -9.300781 1.753906 -10.753906 1.765625 -12.203125 C 1.773438 -13.660156 1.800781 -15.003906 1.84375 -16.234375 C 1.90625 -17.703125 2.265625 -18.753906 2.921875 -19.390625 C 3.585938 -20.035156 4.660156 -20.359375 6.140625 -20.359375 C 7.609375 -20.359375 8.671875 -20.039062 9.328125 -19.40625 C 9.992188 -18.78125 10.335938 -17.742188 10.359375 -16.296875 C 10.378906 -15.867188 10.382812 -15.378906 10.375 -14.828125 C 10.363281 -14.285156 10.347656 -13.757812 10.328125 -13.25 L 8.140625 -13.25 C 8.191406 -13.800781 8.210938 -14.378906 8.203125 -14.984375 C 8.191406 -15.585938 8.1875 -16.09375 8.1875 -16.5 C 8.15625 -17.300781 7.984375 -17.847656 7.671875 -18.140625 C 7.359375 -18.429688 6.847656 -18.578125 6.140625 -18.578125 C 5.398438 -18.578125 4.875 -18.429688 4.5625 -18.140625 C 4.25 -17.847656 4.082031 -17.300781 4.0625 -16.5 C 4.039062 -14.90625 4.019531 -13.429688 4 -12.078125 C 3.988281 -10.734375 3.988281 -9.390625 4 -8.046875 C 4.019531 -6.703125 4.039062 -5.238281 4.0625 -3.65625 C 4.082031 -2.851562 4.253906 -2.300781 4.578125 -2 C 4.898438 -1.695312 5.421875 -1.546875 6.140625 -1.546875 C 6.847656 -1.546875 7.359375 -1.695312 7.671875 -2 C 7.984375 -2.300781 8.15625 -2.851562 8.1875 -3.65625 C 8.1875 -4.082031 8.191406 -4.5625 8.203125 -5.09375 C 8.210938 -5.632812 8.191406 -6.238281 8.140625 -6.90625 L 10.328125 -6.90625 C 10.390625 -5.832031 10.398438 -4.816406 10.359375 -3.859375 C 10.316406 -2.398438 9.96875 -1.351562 9.3125 -0.71875 C 8.664062 -0.0820312 7.609375 0.234375 6.140625 0.234375 C 4.640625 0.234375 3.554688 -0.0820312 2.890625 -0.71875 C 2.234375 -1.351562 1.882812 -2.398438 1.84375 -3.859375 Z M 1.84375 -3.859375 "/></g></g></g><g fill="rgb(100%, 100%, 100%)" fill-opacity="1"><g transform="translate(169.902645, 84.679022)"><g><path d="M 7.046875 0.234375 C 5.472656 0.234375 4.394531 -0.0820312 3.8125 -0.71875 C 3.238281 -1.351562 2.941406 -2.398438 2.921875 -3.859375 L 2.921875 -18.34375 L 1.546875 -18.34375 L 1.546875 -20.125 L 2.953125 -20.125 L 2.953125 -25.8125 L 5.234375 -25.8125 L 5.203125 -20.125 L 8.1875 -20.125 L 8.1875 -18.34375 L 5.15625 -18.34375 L 5.15625 -3.65625 C 5.15625 -2.832031 5.265625 -2.273438 5.484375 -1.984375 C 5.710938 -1.691406 6.242188 -1.546875 7.078125 -1.546875 C 7.390625 -1.546875 7.644531 -1.550781 7.84375 -1.5625 C 8.039062 -1.570312 8.265625 -1.597656 8.515625 -1.640625 L 8.515625 0.0625 C 8.085938 0.175781 7.597656 0.234375 7.046875 0.234375 Z M 7.046875 0.234375 "/></g></g></g><g fill="rgb(100%, 100%, 100%)" fill-opacity="1"><g transform="translate(179.424381, 84.679022)"><g><path d="M 5.640625 0.234375 C 4.179688 0.234375 3.160156 -0.0820312 2.578125 -0.71875 C 1.992188 -1.351562 1.679688 -2.398438 1.640625 -3.859375 C 1.597656 -4.816406 1.609375 -5.832031 1.671875 -6.90625 L 3.65625 -6.90625 C 3.632812 -6.238281 3.625 -5.632812 3.625 -5.09375 C 3.625 -4.5625 3.625 -4.082031 3.625 -3.65625 C 3.644531 -2.851562 3.804688 -2.300781 4.109375 -2 C 4.410156 -1.695312 4.921875 -1.546875 5.640625 -1.546875 C 6.390625 -1.546875 6.921875 -1.695312 7.234375 -2 C 7.554688 -2.300781 7.726562 -2.851562 7.75 -3.65625 C 7.769531 -4.0625 7.78125 -4.472656 7.78125 -4.890625 C 7.78125 -5.316406 7.78125 -5.707031 7.78125 -6.0625 C 7.757812 -6.894531 7.65625 -7.53125 7.46875 -7.96875 C 7.289062 -8.40625 6.914062 -8.722656 6.34375 -8.921875 L 4.765625 -9.453125 C 3.597656 -9.835938 2.785156 -10.375 2.328125 -11.0625 C 1.867188 -11.757812 1.628906 -12.84375 1.609375 -14.3125 C 1.585938 -14.65625 1.582031 -14.972656 1.59375 -15.265625 C 1.601562 -15.566406 1.609375 -15.890625 1.609375 -16.234375 C 1.628906 -17.703125 1.941406 -18.753906 2.546875 -19.390625 C 3.148438 -20.035156 4.222656 -20.359375 5.765625 -20.359375 C 7.222656 -20.359375 8.238281 -20.039062 8.8125 -19.40625 C 9.394531 -18.78125 9.707031 -17.742188 9.75 -16.296875 C 9.75 -15.867188 9.75 -15.378906 9.75 -14.828125 C 9.75 -14.285156 9.738281 -13.757812 9.71875 -13.25 L 7.640625 -13.25 C 7.691406 -13.800781 7.707031 -14.378906 7.6875 -14.984375 C 7.675781 -15.585938 7.671875 -16.09375 7.671875 -16.5 C 7.648438 -17.300781 7.503906 -17.847656 7.234375 -18.140625 C 6.972656 -18.429688 6.484375 -18.578125 5.765625 -18.578125 C 5.023438 -18.578125 4.515625 -18.429688 4.234375 -18.140625 C 3.960938 -17.847656 3.8125 -17.300781 3.78125 -16.5 C 3.78125 -16.113281 3.773438 -15.765625 3.765625 -15.453125 C 3.753906 -15.140625 3.75 -14.816406 3.75 -14.484375 C 3.769531 -13.640625 3.851562 -12.957031 4 -12.4375 C 4.144531 -11.925781 4.554688 -11.554688 5.234375 -11.328125 L 6.703125 -10.890625 C 7.773438 -10.554688 8.570312 -10.035156 9.09375 -9.328125 C 9.625 -8.628906 9.890625 -7.578125 9.890625 -6.171875 C 9.890625 -5.785156 9.882812 -5.382812 9.875 -4.96875 C 9.863281 -4.5625 9.847656 -4.164062 9.828125 -3.78125 C 9.773438 -2.351562 9.441406 -1.328125 8.828125 -0.703125 C 8.210938 -0.078125 7.148438 0.234375 5.640625 0.234375 Z M 5.640625 0.234375 "/></g></g></g><g fill="rgb(100%, 100%, 100%)" fill-opacity="1"><g transform="translate(190.857177, 84.679022)"><g><path d="M 0.375 6.734375 C 2.007812 6.734375 3.351562 6.296875 4.40625 5.421875 C 5.457031 4.554688 5.984375 3.238281 5.984375 1.46875 C 5.984375 1.113281 5.960938 0.550781 5.921875 -0.21875 C 5.890625 -0.988281 5.859375 -1.804688 5.828125 -2.671875 C 5.796875 -3.546875 5.765625 -4.328125 5.734375 -5.015625 C 5.703125 -5.710938 5.6875 -6.164062 5.6875 -6.375 C 5.6875 -7.269531 5.832031 -7.878906 6.125 -8.203125 C 6.425781 -8.523438 6.835938 -8.695312 7.359375 -8.71875 L 8 -8.71875 L 8 -11.359375 L 7.359375 -11.359375 C 6.835938 -11.390625 6.425781 -11.5625 6.125 -11.875 C 5.832031 -12.1875 5.6875 -12.800781 5.6875 -13.71875 C 5.6875 -13.914062 5.703125 -14.359375 5.734375 -15.046875 C 5.765625 -15.742188 5.796875 -16.523438 5.828125 -17.390625 C 5.859375 -18.265625 5.882812 -19.085938 5.90625 -19.859375 C 5.9375 -20.640625 5.953125 -21.207031 5.953125 -21.5625 C 5.953125 -23.351562 5.429688 -24.675781 4.390625 -25.53125 C 3.347656 -26.394531 2.007812 -26.828125 0.375 -26.828125 L 0.375 -25.515625 C 1.382812 -25.515625 2.203125 -25.148438 2.828125 -24.421875 C 3.453125 -23.703125 3.765625 -22.75 3.765625 -21.5625 C 3.765625 -21.226562 3.753906 -20.710938 3.734375 -20.015625 C 3.710938 -19.328125 3.679688 -18.582031 3.640625 -17.78125 C 3.609375 -16.988281 3.582031 -16.269531 3.5625 -15.625 C 3.539062 -14.976562 3.53125 -14.53125 3.53125 -14.28125 C 3.53125 -13.207031 3.71875 -12.316406 4.09375 -11.609375 C 4.476562 -10.910156 5.039062 -10.484375 5.78125 -10.328125 L 5.78125 -9.796875 C 5.039062 -9.640625 4.476562 -9.203125 4.09375 -8.484375 C 3.71875 -7.765625 3.53125 -6.878906 3.53125 -5.828125 C 3.53125 -5.585938 3.539062 -5.132812 3.5625 -4.46875 C 3.582031 -3.8125 3.609375 -3.085938 3.640625 -2.296875 C 3.679688 -1.503906 3.710938 -0.757812 3.734375 -0.0625 C 3.753906 0.625 3.765625 1.132812 3.765625 1.46875 C 3.765625 2.65625 3.453125 3.613281 2.828125 4.34375 C 2.203125 5.070312 1.382812 5.4375 0.375 5.4375 Z M 0.375 6.734375 "/></g></g></g></svg>